<?xml version="1.0"?>
<svg width="215" height="215" xmlns="http://www.w3.org/2000/svg" xmlns:svg="http://www.w3.org/2000/svg">
 <defs>
  <style>.cls-1{fill:#fff;}.cls-2{fill-rule:evenodd;}</style>
 </defs>
 <g class="layer">
  <title>Layer 1</title>
  <g id="Instagram">
   <path class="cls-1" d="m-1,102.2c0,-48.65 0,-73 15.11,-88.09s39.44,-15.11 88.09,-15.11l8.6,0c48.65,0 73,0 88.09,15.11s15.11,39.44 15.11,88.09l0,8.6c0,48.65 0,73 -15.11,88.09s-39.44,15.11 -88.09,15.11l-8.6,0c-48.65,0 -73,0 -88.09,-15.11s-15.11,-39.44 -15.11,-88.09l0,-8.6z" fill="#000000" id="Background" stroke="#16361b"/>
   <path class="cls-2" d="m106.5,46.55c16.28,0 18.32,0.07 24.72,0.36a44,44 0 0 1 14.55,2.79a30.6,30.6 0 0 1 17.53,17.53a44,44 0 0 1 2.79,14.55c0.29,6.4 0.36,8.44 0.36,24.72s-0.07,18.32 -0.36,24.72a44,44 0 0 1 -2.79,14.55a30.6,30.6 0 0 1 -17.53,17.53a44,44 0 0 1 -14.55,2.79c-6.4,0.29 -8.44,0.36 -24.72,0.36s-18.32,-0.07 -24.72,-0.36a44,44 0 0 1 -14.55,-2.79a30.6,30.6 0 0 1 -17.53,-17.53a44,44 0 0 1 -2.79,-14.55c-0.29,-6.4 -0.36,-8.44 -0.36,-24.72s0.07,-18.32 0.36,-24.72a44,44 0 0 1 2.79,-14.55a30.6,30.6 0 0 1 17.53,-17.53a44,44 0 0 1 14.55,-2.79c6.4,-0.29 8.44,-0.36 24.72,-0.36zm24.22,11.15c-6.32,-0.29 -8.21,-0.35 -24.22,-0.35s-17.9,0.06 -24.22,0.35a33.06,33.06 0 0 0 -11.14,2.07a19.82,19.82 0 0 0 -11.37,11.37a33.06,33.06 0 0 0 -2.07,11.14c-0.29,6.32 -0.35,8.21 -0.35,24.22s0.06,17.9 0.35,24.22a33.06,33.06 0 0 0 2.07,11.14a19.82,19.82 0 0 0 11.37,11.37a33.06,33.06 0 0 0 11.14,2.07c6.32,0.29 8.21,0.35 24.22,0.35s17.9,-0.06 24.22,-0.35a33.06,33.06 0 0 0 11.14,-2.07a19.82,19.82 0 0 0 11.37,-11.37a33.06,33.06 0 0 0 2.07,-11.14c0.29,-6.32 0.35,-8.21 0.35,-24.22s-0.06,-17.9 -0.35,-24.22a33.06,33.06 0 0 0 -2.07,-11.14a19.82,19.82 0 0 0 -11.37,-11.37a33.06,33.06 0 0 0 -11.14,-2.07zm-24.22,68.78a20,20 0 1 0 -20,-20a20,20 0 0 0 20,20zm0,-50.77a30.79,30.79 0 1 1 -30.79,30.79a30.79,30.79 0 0 1 30.79,-30.79zm39.2,-1.21a7.2,7.2 0 1 1 -7.2,-7.2a7.2,7.2 0 0 1 7.2,7.2z" data-name="Instagram" fill="#16361b" id="Instagram-2" stroke="#16361b"/>
  </g>
 </g>
</svg>