<?xml version="1.0"?>
<svg width="215" height="215" xmlns="http://www.w3.org/2000/svg" xmlns:svg="http://www.w3.org/2000/svg">
 <defs>
  <style>.cls-1{fill:#fff;}.cls-2{fill-rule:evenodd;}</style>
 </defs>
 <g class="layer">
  <title>Layer 1</title>
  <g id="Telegram">
   <path class="cls-1" d="m0,103.2c0,-48.65 0,-73 15.11,-88.09s39.44,-15.11 88.09,-15.11l8.6,0c48.65,0 73,0 88.09,15.11s15.11,39.44 15.11,88.09l0,8.6c0,48.65 0,73 -15.11,88.09s-39.44,15.11 -88.09,15.11l-8.6,0c-48.65,0 -73,0 -88.09,-15.11s-15.11,-39.44 -15.11,-88.09l0,-8.6z" id="Background" transform="matrix(1 0 0 1 0 0)"/>
   <path class="cls-2" d="m44.29,105q51.57,-22.47 68.78,-29.63c32.76,-13.63 39.56,-16 44,-16.07a7.7,7.7 0 0 1 4.57,1.37a5,5 0 0 1 1.68,3.19a21,21 0 0 1 0.2,4.65c-1.78,18.65 -9.46,63.91 -13.37,84.79c-1.65,8.84 -4.9,11.81 -8.06,12.1c-6.85,0.63 -12.05,-4.53 -18.68,-8.88c-10.38,-6.8 -16.25,-11 -26.32,-17.68c-11.65,-7.67 -4.1,-11.89 2.54,-18.78c1.74,-1.81 31.91,-29.26 32.5,-31.75a2.41,2.41 0 0 0 -0.55,-2.08a2.68,2.68 0 0 0 -2.44,-0.24q-1.56,0.36 -49.75,32.88q-7.07,4.86 -12.79,4.73c-4.22,-0.09 -12.32,-2.38 -18.34,-4.34c-7.38,-2.4 -13.25,-3.67 -12.74,-7.75q0.39,-3.2 8.77,-6.51z" data-name="Telegram" fill="#16361b" id="Telegram-2"/>
  </g>
 </g>
</svg>