<?xml version="1.0"?>
<svg width="215" height="215" xmlns="http://www.w3.org/2000/svg" xmlns:svg="http://www.w3.org/2000/svg">
 <defs>
  <style>.cls-1{fill:#fff;}</style>
 </defs>
 <g class="layer">
  <title>Layer 1</title>
  <g id="VK">
   <path class="cls-1" d="m0,103.2c0,-48.65 0,-73 15.11,-88.09s39.44,-15.11 88.09,-15.11l8.6,0c48.65,0 73,0 88.09,15.11s15.11,39.44 15.11,88.09l0,8.6c0,48.65 0,73 -15.11,88.09s-39.44,15.11 -88.09,15.11l-8.6,0c-48.65,0 -73,0 -88.09,-15.11s-15.11,-39.44 -15.11,-88.09l0,-8.6z" id="Background"/>
   <path d="m112,151c-45.86,0 -72,-31.44 -73.1,-83.75l23,0c0.75,38.4 17.69,54.66 31.1,58l0,-58l21.63,0l0,33.12c13.24,-1.43 27.16,-16.52 31.85,-33.12l21.63,0c-3.6,20.46 -18.69,35.55 -29.42,41.75c10.73,5 27.91,18.19 34.45,42l-23.85,0c-5.11,-16 -17.85,-28.3 -34.7,-30l0,30l-2.59,0z" data-name="VK" fill="#16361b" id="VK-2" stroke="#16361b"/>
  </g>
 </g>
</svg>