<?xml version="1.0"?>
<svg width="215" height="215" xmlns="http://www.w3.org/2000/svg" xmlns:svg="http://www.w3.org/2000/svg">
 <defs>
  <style>.cls-1{fill:#fff;}.cls-2{fill-rule:evenodd;}</style>
 </defs>
 <g class="layer">
  <title>Layer 1</title>
  <g id="WhatsApp">
   <path class="cls-1" d="m831,103.2c0,-48.65 0,-73 15.11,-88.09s39.44,-15.11 88.09,-15.11l8.6,0c48.65,0 73,0 88.09,15.11s15.11,39.44 15.11,88.09l0,8.6c0,48.65 0,73 -15.11,88.09s-39.44,15.11 -88.09,15.11l-8.6,0c-48.65,0 -73,0 -88.09,-15.11s-15.11,-39.44 -15.11,-88.09l0,-8.6z" id="Background" transform="translate(-831)"/>
   <g data-name="WhatsApp" id="WhatsApp-2">
    <path d="m49.57,166.37l8.3,-30.32a58.51,58.51 0 1 1 50.7,29.3l0,0a58.38,58.38 0 0 1 -27.95,-7.12l-31.05,8.14zm32.43,-18.73l1.78,1.05a48.5,48.5 0 0 0 24.75,6.78l0,0a48.62,48.62 0 1 0 -41.2,-22.79l1.16,1.84l-4.91,17.95l18.42,-4.83z" data-name="WhatsApp" fill="#16361b" id="WhatsApp-3" stroke="#16361b"/>
    <path class="cls-2" d="m138,120.76c-0.36,-0.61 -1.34,-1 -2.8,-1.71s-8.65,-4.27 -10,-4.75s-2.31,-0.74 -3.29,0.73s-3.77,4.75 -4.63,5.73s-1.7,1.1 -3.16,0.37a40.29,40.29 0 0 1 -11.76,-7.26a44.05,44.05 0 0 1 -8.13,-10.13c-0.85,-1.46 -0.09,-2.25 0.64,-3s1.46,-1.71 2.19,-2.56a10,10 0 0 0 1.46,-2.44a2.67,2.67 0 0 0 -0.12,-2.56c-0.36,-0.73 -3.29,-7.93 -4.5,-10.86s-2.4,-2.46 -3.29,-2.51s-1.83,0 -2.81,0a5.38,5.38 0 0 0 -3.8,1.8a16.41,16.41 0 0 0 -5.12,12.2c0,7.19 5.24,14.14 6,15.12s10.31,15.74 25,22.07a81.77,81.77 0 0 0 8.34,3.08a19.86,19.86 0 0 0 9.2,0.58c2.81,-0.42 8.65,-3.53 9.87,-7s1.12,-6.29 0.71,-6.9z" data-name="WhatsApp" fill="#16361b" id="WhatsApp-4" stroke="#16361b"/>
   </g>
  </g>
 </g>
</svg>